solid Bottle Sander Jig
facet normal -1.49009437782398e-032 -1.03101129657781e-032 1.0
outer loop
vertex 43.2646806367297 84.1402668427695 8.0
vertex 43.6459441671934 148.105163946691 8.0
vertex 43.2646806367296 145.209179917139 8.0
endloop
endfacet
facet normal -1.49009437782398e-032 -1.03101129657781e-032 1.0
outer loop
vertex 43.6459441671934 148.105163946691 8.0
vertex 43.2646806367297 84.1402668427695 8.0
vertex 43.6292742954366 86.9096306253665 8.0
endloop
endfacet
facet normal -1.49009437782398e-032 -1.03101129657781e-032 1.0
outer loop
vertex 43.6459441671934 148.105163946691 8.0
vertex 43.6292742954366 86.9096306253665 8.0
vertex 44.6982088162362 89.4902668427695 8.0
endloop
endfacet
facet normal -1.49009437782398e-032 -1.03101129657781e-032 1.0
outer loop
vertex 43.6459441671934 148.105163946691 8.0
vertex 44.6982088162362 89.4902668427695 8.0
vertex 44.7131546143775 150.681637882189 8.0
endloop
endfacet
facet normal -1.49009437782398e-032 -1.03101129657781e-032 1.0
outer loop
vertex 44.7131546143775 150.681637882189 8.0
vertex 44.6982088162362 89.4902668427695 8.0
vertex 46.3986380780336 91.7063094014656 8.0
endloop
endfacet
facet normal -1.49009437782398e-032 -1.03101129657781e-032 1.0
outer loop
vertex 44.7131546143775 150.681637882189 8.0
vertex 46.3986380780336 91.7063094014656 8.0
vertex 46.4108412711152 152.894106208384 8.0
endloop
endfacet
facet normal -1.49009437782398e-032 -1.03101129657781e-032 1.0
outer loop
vertex 46.4108412711152 152.894106208384 8.0
vertex 46.3986380780336 91.7063094014656 8.0
vertex 48.6146806367296 93.406738663263 8.0
endloop
endfacet
facet normal -1.49009437782398e-032 -1.03101129657781e-032 1.0
outer loop
vertex 46.4108412711152 152.894106208384 8.0
vertex 48.6146806367296 93.406738663263 8.0
vertex 48.6233095973097 154.591792865122 8.0
endloop
endfacet
facet normal -1.49009437782398e-032 -1.03101129657781e-032 1.0
outer loop
vertex 48.6233095973097 154.591792865122 8.0
vertex 48.6146806367296 93.406738663263 8.0
vertex 51.1953168541327 94.4756731840626 8.0
endloop
endfacet
facet normal -1.49009437782398e-032 -1.03101129657781e-032 1.0
outer loop
vertex 48.6233095973097 154.591792865122 8.0
vertex 51.1953168541327 94.4756731840626 8.0
vertex 51.1997835328078 155.659003312306 8.0
endloop
endfacet
facet normal -1.49009437782398e-032 -1.03101129657781e-032 1.0
outer loop
vertex 51.1997835328078 155.659003312306 8.0
vertex 51.1953168541327 94.4756731840626 8.0
vertex 51.9646806367296 101.435720473865 8.0
endloop
endfacet
facet normal -1.49009437782398e-032 -1.03101129657781e-032 1.0
outer loop
vertex 51.9646806367296 101.435720473865 8.0
vertex 51.1953168541327 94.4756731840626 8.0
vertex 53.9646806367296 94.8402668427695 8.0
endloop
endfacet
facet normal -1.49009437782398e-032 -1.03101129657781e-032 1.0
outer loop
vertex 51.9646806367296 101.435720473865 8.0
vertex 53.9646806367296 94.8402668427695 8.0
vertex 55.9646806367296 101.435720473865 8.0
endloop
endfacet
facet normal -1.49009437782398e-032 -1.03101129657781e-032 1.0
outer loop
vertex 55.9646806367296 101.435720473865 8.0
vertex 53.9646806367296 94.8402668427695 8.0
vertex 56.7340444193266 94.4756731840626 8.0
endloop
endfacet
facet normal -1.49009437782398e-032 -1.03101129657781e-032 1.0
outer loop
vertex 55.9646806367296 101.435720473865 8.0
vertex 56.7340444193266 94.4756731840626 8.0
vertex 55.9646806367296 145.209179917139 8.0
endloop
endfacet
facet normal -1.49009437782398e-032 -1.03101129657781e-032 1.0
outer loop
vertex 55.9646806367296 145.209179917139 8.0
vertex 56.7340444193266 94.4756731840626 8.0
vertex 56.7295777406514 155.659003312306 8.0
endloop
endfacet
facet normal -1.49009437782398e-032 -1.03101129657781e-032 1.0
outer loop
vertex 56.7295777406514 155.659003312306 8.0
vertex 56.7340444193266 94.4756731840626 8.0
vertex 59.3060516761495 154.591792865122 8.0
endloop
endfacet
facet normal -1.49009437782398e-032 -1.03101129657781e-032 1.0
outer loop
vertex 59.3060516761495 154.591792865122 8.0
vertex 56.7340444193266 94.4756731840626 8.0
vertex 59.3146806367296 93.406738663263 8.0
endloop
endfacet
facet normal -1.49009437782398e-032 -1.03101129657781e-032 1.0
outer loop
vertex 59.3060516761495 154.591792865122 8.0
vertex 59.3146806367296 93.406738663263 8.0
vertex 61.5185200023441 152.894106208384 8.0
endloop
endfacet
facet normal -1.49009437782398e-032 -1.03101129657781e-032 1.0
outer loop
vertex 61.5185200023441 152.894106208384 8.0
vertex 59.3146806367296 93.406738663263 8.0
vertex 61.5307231954257 91.7063094014656 8.0
endloop
endfacet
facet normal -1.49009437782398e-032 -1.03101129657781e-032 1.0
outer loop
vertex 61.5185200023441 152.894106208384 8.0
vertex 61.5307231954257 91.7063094014656 8.0
vertex 63.2162066590818 150.681637882189 8.0
endloop
endfacet
facet normal -1.49009437782398e-032 -1.03101129657781e-032 1.0
outer loop
vertex 63.2162066590818 150.681637882189 8.0
vertex 61.5307231954257 91.7063094014656 8.0
vertex 63.2311524572231 89.4902668427695 8.0
endloop
endfacet
facet normal -1.49009437782398e-032 -1.03101129657781e-032 1.0
outer loop
vertex 63.2162066590818 150.681637882189 8.0
vertex 63.2311524572231 89.4902668427695 8.0
vertex 64.2834171062659 148.105163946691 8.0
endloop
endfacet
facet normal -1.49009437782398e-032 -1.03101129657781e-032 1.0
outer loop
vertex 64.2834171062659 148.105163946691 8.0
vertex 63.2311524572231 89.4902668427695 8.0
vertex 64.3000869780227 86.9096306253665 8.0
endloop
endfacet
facet normal -1.49009437782398e-032 -1.03101129657781e-032 1.0
outer loop
vertex 64.2834171062659 148.105163946691 8.0
vertex 64.3000869780227 86.9096306253665 8.0
vertex 64.6646806367296 145.209179917139 8.0
endloop
endfacet
facet normal -1.49009437782398e-032 -1.03101129657781e-032 1.0
outer loop
vertex 64.6646806367296 145.209179917139 8.0
vertex 64.3000869780227 86.9096306253665 8.0
vertex 64.6646806367296 84.1402668427695 8.0
endloop
endfacet
facet normal -1.49009437782398e-032 -1.03101129657781e-032 1.0
outer loop
vertex 51.1997835328078 155.659003312306 8.0
vertex 51.9646806367296 145.209179917139 8.0
vertex 53.9646806367296 156.023008921609 8.0
endloop
endfacet
facet normal -1.49009437782398e-032 -1.03101129657781e-032 1.0
outer loop
vertex 51.9646806367296 145.209179917139 8.0
vertex 51.1997835328078 155.659003312306 8.0
vertex 51.9646806367296 101.435720473865 8.0
endloop
endfacet
facet normal -1.49009437782398e-032 -1.03101129657781e-032 1.0
outer loop
vertex 53.9646806367296 156.023008921609 8.0
vertex 51.9646806367296 145.209179917139 8.0
vertex 55.9646806367296 145.209179917139 8.0
endloop
endfacet
facet normal -1.49009437782398e-032 -1.03101129657781e-032 1.0
outer loop
vertex 53.9646806367296 156.023008921609 8.0
vertex 55.9646806367296 145.209179917139 8.0
vertex 56.7295777406514 155.659003312306 8.0
endloop
endfacet
facet normal 1.0 -0.0 -0.0
outer loop
vertex 64.6646806367296 84.1402668427695 -7.75490782700672e-015
vertex 64.6646806367296 69.2713537684001 46.1
vertex 64.6646806367296 69.2713537684001 -7.75490782700672e-015
endloop
endfacet
facet normal 1.0 -0.0 -0.0
outer loop
vertex 64.6646806367296 69.2713537684001 46.1
vertex 64.6646806367296 84.1402668427695 -7.75490782700672e-015
vertex 64.6646806367296 84.1402668427695 8.0
endloop
endfacet
facet normal -0.697771385749674 0.66730448862507 0.260422373635242
outer loop
vertex 46.3986380780336 76.8373963270961 46.1
vertex 48.6146806367296 93.406738663263 8.0
vertex 46.3986380780336 91.7063094014656 8.0
endloop
endfacet
facet normal -0.461237866791647 0.826562393901509 0.322574393319272
outer loop
vertex 48.6146806367296 93.406738663263 8.0
vertex 46.3986380780336 76.8373963270961 46.1
vertex 48.6146806367296 78.5378255888936 46.1
endloop
endfacet
facet normal 0.951930052293161 0.285355075445245 0.111362724727703
outer loop
vertex 64.3000869780227 86.9096306253665 8.0
vertex 63.2311524572231 74.6213537684001 46.1
vertex 64.3000869780227 72.040717550997 46.1
endloop
endfacet
facet normal 0.864512742025698 0.468218485583017 0.182727033121963
outer loop
vertex 63.2311524572231 74.6213537684001 46.1
vertex 64.3000869780227 86.9096306253665 8.0
vertex 63.2311524572231 89.4902668427695 8.0
endloop
endfacet
facet normal -1.93535126310632e-015 0.93157248213031 0.363555649849611
outer loop
vertex 53.9646806367296 79.9713537684001 46.1
vertex 56.7340444193266 94.4756731840626 8.0
vertex 53.9646806367296 94.8402668427695 8.0
endloop
endfacet
facet normal 0.235332201628018 0.905409263051909 0.353345187114114
outer loop
vertex 56.7340444193266 94.4756731840626 8.0
vertex 53.9646806367296 79.9713537684001 46.1
vertex 56.7340444193266 79.6067601096931 46.1
endloop
endfacet
facet normal -0.48704257922121 0.813615122033191 0.317521588595906
outer loop
vertex 48.6146806367296 78.5378255888936 46.1
vertex 51.1953168541327 94.4756731840626 8.0
vertex 48.6146806367296 93.406738663263 8.0
endloop
endfacet
facet normal -0.235332201628018 0.905409263051909 0.353345187114114
outer loop
vertex 51.1953168541327 94.4756731840626 8.0
vertex 48.6146806367296 78.5378255888936 46.1
vertex 51.1953168541327 79.6067601096931 46.1
endloop
endfacet
facet normal 0.48704257922121 0.813615122033191 0.317521588595906
outer loop
vertex 59.3146806367296 78.5378255888936 46.1
vertex 61.5307231954257 91.7063094014656 8.0
vertex 59.3146806367296 93.406738663263 8.0
endloop
endfacet
facet normal 0.666232597149364 0.694714597208265 0.271119447700401
outer loop
vertex 61.5307231954257 91.7063094014656 8.0
vertex 59.3146806367296 78.5378255888936 46.1
vertex 61.5307231954257 76.8373963270961 46.1
endloop
endfacet
facet normal -0.249639518112107 0.902077817657181 0.352045056615788
outer loop
vertex 51.1953168541327 79.6067601096931 46.1
vertex 53.9646806367296 94.8402668427695 8.0
vertex 51.1953168541327 94.4756731840626 8.0
endloop
endfacet
facet normal -1.81733410016544e-015 0.93157248213031 0.363555649849611
outer loop
vertex 53.9646806367296 94.8402668427695 8.0
vertex 51.1953168541327 79.6067601096931 46.1
vertex 53.9646806367296 79.9713537684001 46.1
endloop
endfacet
facet normal -0.697771385749674 0.66730448862507 0.260422373635242
outer loop
vertex 46.3986380780336 76.8373963270961 46.1
vertex 44.6982088162362 89.4902668427695 8.0
vertex 44.6982088162362 74.6213537684001 46.1
endloop
endfacet
facet normal -0.835548649996901 0.511821261274012 0.19974346045925
outer loop
vertex 44.6982088162362 89.4902668427695 8.0
vertex 46.3986380780336 76.8373963270961 46.1
vertex 46.3986380780336 91.7063094014656 8.0
endloop
endfacet
facet normal 0.990161058851016 0.130357176411515 0.0508732158709463
outer loop
vertex 64.6646806367296 84.1402668427695 8.0
vertex 64.3000869780227 72.040717550997 46.1
vertex 64.6646806367296 69.2713537684001 46.1
endloop
endfacet
facet normal 0.969408263343657 0.228658102545086 0.0892361535562506
outer loop
vertex 64.3000869780227 72.040717550997 46.1
vertex 64.6646806367296 84.1402668427695 8.0
vertex 64.3000869780227 86.9096306253665 8.0
endloop
endfacet
facet normal -0.864512742025698 0.468218485583017 0.182727033121963
outer loop
vertex 44.6982088162362 74.6213537684001 46.1
vertex 43.6292742954366 86.9096306253665 8.0
vertex 43.6292742954366 72.040717550997 46.1
endloop
endfacet
facet normal -0.951930052293161 0.285355075445246 0.111362724727703
outer loop
vertex 43.6292742954366 86.9096306253665 8.0
vertex 44.6982088162362 74.6213537684001 46.1
vertex 44.6982088162362 89.4902668427695 8.0
endloop
endfacet
facet normal -0.969408263343657 0.228658102545088 0.0892361535562511
outer loop
vertex 43.6292742954366 72.040717550997 46.1
vertex 43.2646806367297 84.1402668427695 8.0
vertex 43.2646806367297 69.2713537684001 46.1
endloop
endfacet
facet normal -0.990161058851016 0.130357176411517 0.0508732158709473
outer loop
vertex 43.2646806367297 84.1402668427695 8.0
vertex 43.6292742954366 72.040717550997 46.1
vertex 43.6292742954366 86.9096306253665 8.0
endloop
endfacet
facet normal 0.249639518112108 0.90207781765718 0.352045056615788
outer loop
vertex 56.7340444193266 79.6067601096931 46.1
vertex 59.3146806367296 93.406738663263 8.0
vertex 56.7340444193266 94.4756731840626 8.0
endloop
endfacet
facet normal 0.461237866791648 0.826562393901509 0.322574393319272
outer loop
vertex 59.3146806367296 93.406738663263 8.0
vertex 56.7340444193266 79.6067601096931 46.1
vertex 59.3146806367296 78.5378255888936 46.1
endloop
endfacet
facet normal -1.0 -3.41816133243459e-016 -1.18764718638647e-016
outer loop
vertex 43.2646806367297 69.2713537684001 46.1
vertex 43.2646806367297 84.1402668427695 -7.75490782700672e-015
vertex 43.2646806367297 69.2713537683998 -7.75490782700672e-015
endloop
endfacet
facet normal -1.0 -3.41816133243459e-016 -1.18764718638647e-016
outer loop
vertex 43.2646806367297 84.1402668427695 -7.75490782700672e-015
vertex 43.2646806367297 69.2713537684001 46.1
vertex 43.2646806367297 84.1402668427695 8.0
endloop
endfacet
facet normal 0.8355486499969 0.511821261274013 0.19974346045925
outer loop
vertex 63.2311524572231 89.4902668427695 8.0
vertex 61.5307231954257 76.8373963270961 46.1
vertex 63.2311524572231 74.6213537684001 46.1
endloop
endfacet
facet normal 0.697771385749672 0.667304488625071 0.260422373635243
outer loop
vertex 61.5307231954257 76.8373963270961 46.1
vertex 63.2311524572231 89.4902668427695 8.0
vertex 61.5307231954257 91.7063094014656 8.0
endloop
endfacet
facet normal -1.0 -2.77060750609438e-016 -7.04340093947332e-033
outer loop
vertex 43.2646806367296 145.209179917139 8.0
vertex 43.2646806367297 84.1402668427695 -7.75490782700672e-015
vertex 43.2646806367297 84.1402668427695 8.0
endloop
endfacet
facet normal -1.0 -2.77060750609438e-016 -7.04340093947332e-033
outer loop
vertex 43.2646806367297 84.1402668427695 -7.75490782700672e-015
vertex 43.2646806367296 145.209179917139 8.0
vertex 43.2646806367296 145.209179917139 -7.75490782700672e-015
endloop
endfacet
facet normal -0.965925826289068 0.258819045102522 -7.18189316210061e-033
outer loop
vertex 43.6459441671934 148.105163946691 8.0
vertex 43.2646806367296 145.209179917139 -7.75490782700672e-015
vertex 43.2646806367296 145.209179917139 8.0
endloop
endfacet
facet normal -0.99144486137381 0.130526192220054 -7.17402180180875e-033
outer loop
vertex 43.2646806367296 145.209179917139 -7.75490782700672e-015
vertex 43.6459441671934 148.105163946691 8.0
vertex 43.6459441671934 148.105163946691 -7.75490782700672e-015
endloop
endfacet
facet normal -0.866025403784439 0.499999999999999 -6.83095123437037e-033
outer loop
vertex 44.7131546143775 150.681637882189 8.0
vertex 43.6459441671934 148.105163946691 -7.75490782700672e-015
vertex 43.6459441671934 148.105163946691 8.0
endloop
endfacet
facet normal -0.965925826289068 0.258819045102522 -7.18189316210061e-033
outer loop
vertex 43.6459441671934 148.105163946691 -7.75490782700672e-015
vertex 44.7131546143775 150.681637882189 8.0
vertex 44.7131546143775 150.681637882189 -7.75490782700672e-015
endloop
endfacet
facet normal -0.707106781186549 0.707106781186547 -6.01449126869845e-033
outer loop
vertex 46.4108412711152 152.894106208384 8.0
vertex 44.7131546143775 150.681637882189 -7.75490782700672e-015
vertex 44.7131546143775 150.681637882189 8.0
endloop
endfacet
facet normal -0.866025403784439 0.499999999999999 -6.83095123437037e-033
outer loop
vertex 44.7131546143775 150.681637882189 -7.75490782700672e-015
vertex 46.4108412711152 152.894106208384 8.0
vertex 46.4108412711152 152.894106208384 -7.75490782700672e-015
endloop
endfacet
facet normal -0.707106781186549 0.707106781186547 -6.01449126869845e-033
outer loop
vertex 46.4108412711152 152.894106208384 8.0
vertex 48.6233095973097 154.591792865122 -7.75490782700672e-015
vertex 46.4108412711152 152.894106208384 -7.75490782700672e-015
endloop
endfacet
facet normal -0.499999999999999 0.866025403784439 -4.78815366248149e-033
outer loop
vertex 48.6233095973097 154.591792865122 -7.75490782700672e-015
vertex 46.4108412711152 152.894106208384 8.0
vertex 48.6233095973097 154.591792865122 8.0
endloop
endfacet
facet normal -0.499999999999999 0.866025403784439 -4.78815366248149e-033
outer loop
vertex 48.6233095973097 154.591792865122 8.0
vertex 51.1997835328078 155.659003312306 -7.75490782700672e-015
vertex 48.6233095973097 154.591792865122 -7.75490782700672e-015
endloop
endfacet
facet normal -0.25881904510252 0.965925826289069 -3.23551129696448e-033
outer loop
vertex 51.1997835328078 155.659003312306 -7.75490782700672e-015
vertex 48.6233095973097 154.591792865122 8.0
vertex 51.1997835328078 155.659003312306 8.0
endloop
endfacet
facet normal -0.25881904510252 0.965925826289069 -3.23551129696448e-033
outer loop
vertex 51.1997835328078 155.659003312306 8.0
vertex 53.9646806367296 156.023008921609 -7.75490782700672e-015
vertex 51.1997835328078 155.659003312306 -7.75490782700672e-015
endloop
endfacet
facet normal -4.01891056293675e-015 1.0 -1.46237418349461e-033
outer loop
vertex 53.9646806367296 156.023008921609 -7.75490782700672e-015
vertex 51.1997835328078 155.659003312306 8.0
vertex 53.9646806367296 156.023008921609 8.0
endloop
endfacet
facet normal -4.01891056293675e-015 1.0 -1.46237418349461e-033
outer loop
vertex 53.9646806367296 156.023008921609 8.0
vertex 56.7295777406514 155.659003312306 -7.75490782700672e-015
vertex 53.9646806367296 156.023008921609 -7.75490782700672e-015
endloop
endfacet
facet normal 0.258819045102518 0.965925826289069 4.10421313892857e-034
outer loop
vertex 56.7295777406514 155.659003312306 -7.75490782700672e-015
vertex 53.9646806367296 156.023008921609 8.0
vertex 56.7295777406514 155.659003312306 8.0
endloop
endfacet
facet normal 0.258819045102518 0.965925826289069 4.10421313892857e-034
outer loop
vertex 56.7295777406514 155.659003312306 8.0
vertex 59.3060516761495 154.591792865122 -7.75490782700672e-015
vertex 56.7295777406514 155.659003312306 -7.75490782700672e-015
endloop
endfacet
facet normal 0.499999999999997 0.86602540378444 2.2552472769918e-033
outer loop
vertex 59.3060516761495 154.591792865122 -7.75490782700672e-015
vertex 56.7295777406514 155.659003312306 8.0
vertex 59.3060516761495 154.591792865122 8.0
endloop
endfacet
facet normal 0.499999999999997 0.86602540378444 2.2552472769918e-033
outer loop
vertex 59.3060516761495 154.591792865122 8.0
vertex 61.5185200023441 152.894106208384 -7.75490782700672e-015
vertex 59.3060516761495 154.591792865122 -7.75490782700672e-015
endloop
endfacet
facet normal 0.707106781186546 0.707106781186549 3.94638186513611e-033
outer loop
vertex 61.5185200023441 152.894106208384 -7.75490782700672e-015
vertex 59.3060516761495 154.591792865122 8.0
vertex 61.5185200023441 152.894106208384 8.0
endloop
endfacet
facet normal 0.707106781186546 0.707106781186549 3.94638186513611e-033
outer loop
vertex 61.5185200023441 152.894106208384 -7.75490782700672e-015
vertex 63.2162066590818 150.681637882189 8.0
vertex 63.2162066590818 150.681637882189 -7.75490782700672e-015
endloop
endfacet
facet normal 0.86602540378444 0.499999999999998 5.36857705087579e-033
outer loop
vertex 63.2162066590818 150.681637882189 8.0
vertex 61.5185200023441 152.894106208384 -7.75490782700672e-015
vertex 61.5185200023441 152.894106208384 8.0
endloop
endfacet
facet normal 0.86602540378444 0.499999999999998 5.36857705087579e-033
outer loop
vertex 63.2162066590818 150.681637882189 -7.75490782700672e-015
vertex 64.2834171062659 148.105163946691 8.0
vertex 64.2834171062659 148.105163946691 -7.75490782700672e-015
endloop
endfacet
facet normal 0.965925826289068 0.25881904510252 6.42491258259132e-033
outer loop
vertex 64.2834171062659 148.105163946691 8.0
vertex 63.2162066590818 150.681637882189 -7.75490782700672e-015
vertex 63.2162066590818 150.681637882189 8.0
endloop
endfacet
facet normal 0.965925826289068 0.25881904510252 6.42491258259132e-033
outer loop
vertex 64.2834171062659 148.105163946691 -7.75490782700672e-015
vertex 64.6646806367296 145.209179917139 8.0
vertex 64.6646806367296 145.209179917139 -7.75490782700672e-015
endloop
endfacet
facet normal 0.99144486137381 0.130526192220051 6.79226553426384e-033
outer loop
vertex 64.6646806367296 145.209179917139 8.0
vertex 64.2834171062659 148.105163946691 -7.75490782700672e-015
vertex 64.2834171062659 148.105163946691 8.0
endloop
endfacet
facet normal 1.0 3.69414334145917e-016 7.04340093947332e-033
outer loop
vertex 64.6646806367296 145.209179917139 -7.75490782700672e-015
vertex 64.6646806367296 84.1402668427695 8.0
vertex 64.6646806367296 84.1402668427695 -7.75490782700672e-015
endloop
endfacet
facet normal 1.0 3.69414334145917e-016 7.04340093947332e-033
outer loop
vertex 64.6646806367296 84.1402668427695 8.0
vertex 64.6646806367296 145.209179917139 -7.75490782700672e-015
vertex 64.6646806367296 145.209179917139 8.0
endloop
endfacet
facet normal 3.54282475771608e-017 -1.60372531538531e-016 -1.0
outer loop
vertex 53.9646806367296 156.023008921609 -7.75490782700672e-015
vertex 51.9646806367296 145.209179917139 -6.34492458573277e-015
vertex 51.1997835328078 155.659003312306 -7.75490782700672e-015
endloop
endfacet
facet normal 3.54282475771608e-017 -1.60372531538531e-016 -1.0
outer loop
vertex 51.9646806367296 145.209179917139 -6.34492458573277e-015
vertex 53.9646806367296 156.023008921609 -7.75490782700672e-015
vertex 55.9646806367296 145.209179917139 -6.34492458573277e-015
endloop
endfacet
facet normal 3.54282475771608e-017 -1.60372531538531e-016 -1.0
outer loop
vertex 55.9646806367296 145.209179917139 -6.34492458573277e-015
vertex 53.9646806367296 156.023008921609 -7.75490782700672e-015
vertex 56.7295777406514 155.659003312306 -7.75490782700672e-015
endloop
endfacet
facet normal 3.54282475771608e-017 -1.60372531538531e-016 -1.0
outer loop
vertex 55.9646806367296 145.209179917139 -6.34492458573277e-015
vertex 56.7295777406514 155.659003312306 -7.75490782700672e-015
vertex 55.9646806367296 101.435720473865 -6.34492458573277e-015
endloop
endfacet
facet normal 3.54282475771608e-017 -1.60372531538531e-016 -1.0
outer loop
vertex 55.9646806367296 101.435720473865 -6.34492458573277e-015
vertex 56.7295777406514 155.659003312306 -7.75490782700672e-015
vertex 55.9646806367296 69.2713537684001 2.25597318603832e-014
endloop
endfacet
facet normal 3.54282475771608e-017 -1.60372531538531e-016 -1.0
outer loop
vertex 55.9646806367296 69.2713537684001 2.25597318603832e-014
vertex 56.7295777406514 155.659003312306 -7.75490782700672e-015
vertex 64.6646806367296 69.2713537684001 -7.75490782700672e-015
endloop
endfacet
facet normal 3.54282475771608e-017 -1.60372531538531e-016 -1.0
outer loop
vertex 64.6646806367296 69.2713537684001 -7.75490782700672e-015
vertex 56.7295777406514 155.659003312306 -7.75490782700672e-015
vertex 59.3060516761495 154.591792865122 -7.75490782700672e-015
endloop
endfacet
facet normal 3.54282475771608e-017 -1.60372531538531e-016 -1.0
outer loop
vertex 64.6646806367296 69.2713537684001 -7.75490782700672e-015
vertex 59.3060516761495 154.591792865122 -7.75490782700672e-015
vertex 61.5185200023441 152.894106208384 -7.75490782700672e-015
endloop
endfacet
facet normal 3.54282475771608e-017 -1.60372531538531e-016 -1.0
outer loop
vertex 64.6646806367296 69.2713537684001 -7.75490782700672e-015
vertex 61.5185200023441 152.894106208384 -7.75490782700672e-015
vertex 63.2162066590818 150.681637882189 -7.75490782700672e-015
endloop
endfacet
facet normal 3.54282475771608e-017 -1.60372531538531e-016 -1.0
outer loop
vertex 64.6646806367296 69.2713537684001 -7.75490782700672e-015
vertex 63.2162066590818 150.681637882189 -7.75490782700672e-015
vertex 64.2834171062659 148.105163946691 -7.75490782700672e-015
endloop
endfacet
facet normal 3.54282475771608e-017 -1.60372531538531e-016 -1.0
outer loop
vertex 64.6646806367296 69.2713537684001 -7.75490782700672e-015
vertex 64.2834171062659 148.105163946691 -7.75490782700672e-015
vertex 64.6646806367296 145.209179917139 -7.75490782700672e-015
endloop
endfacet
facet normal 3.54282475771608e-017 -1.60372531538531e-016 -1.0
outer loop
vertex 64.6646806367296 69.2713537684001 -7.75490782700672e-015
vertex 64.6646806367296 145.209179917139 -7.75490782700672e-015
vertex 64.6646806367296 84.1402668427695 -7.75490782700672e-015
endloop
endfacet
facet normal 3.54282475771608e-017 -1.60372531538531e-016 -1.0
outer loop
vertex 43.6459441671934 148.105163946691 -7.75490782700672e-015
vertex 43.2646806367297 84.1402668427695 -7.75490782700672e-015
vertex 43.2646806367296 145.209179917139 -7.75490782700672e-015
endloop
endfacet
facet normal 3.54282475771608e-017 -1.60372531538531e-016 -1.0
outer loop
vertex 43.2646806367297 84.1402668427695 -7.75490782700672e-015
vertex 43.6459441671934 148.105163946691 -7.75490782700672e-015
vertex 43.2646806367297 69.2713537683998 -7.75490782700672e-015
endloop
endfacet
facet normal 3.54282475771608e-017 -1.60372531538531e-016 -1.0
outer loop
vertex 43.2646806367297 69.2713537683998 -7.75490782700672e-015
vertex 43.6459441671934 148.105163946691 -7.75490782700672e-015
vertex 51.9646806367296 69.2713537684001 0.0
endloop
endfacet
facet normal 3.54282475771608e-017 -1.60372531538531e-016 -1.0
outer loop
vertex 51.9646806367296 69.2713537684001 0.0
vertex 43.6459441671934 148.105163946691 -7.75490782700672e-015
vertex 44.7131546143775 150.681637882189 -7.75490782700672e-015
endloop
endfacet
facet normal 3.54282475771608e-017 -1.60372531538531e-016 -1.0
outer loop
vertex 51.9646806367296 69.2713537684001 0.0
vertex 44.7131546143775 150.681637882189 -7.75490782700672e-015
vertex 46.4108412711152 152.894106208384 -7.75490782700672e-015
endloop
endfacet
facet normal 3.54282475771608e-017 -1.60372531538531e-016 -1.0
outer loop
vertex 51.9646806367296 69.2713537684001 0.0
vertex 46.4108412711152 152.894106208384 -7.75490782700672e-015
vertex 48.6233095973097 154.591792865122 -7.75490782700672e-015
endloop
endfacet
facet normal 3.54282475771608e-017 -1.60372531538531e-016 -1.0
outer loop
vertex 51.9646806367296 69.2713537684001 0.0
vertex 48.6233095973097 154.591792865122 -7.75490782700672e-015
vertex 51.1997835328078 155.659003312306 -7.75490782700672e-015
endloop
endfacet
facet normal 3.54282475771608e-017 -1.60372531538531e-016 -1.0
outer loop
vertex 51.9646806367296 69.2713537684001 0.0
vertex 51.1997835328078 155.659003312306 -7.75490782700672e-015
vertex 51.9646806367296 101.435720473865 -6.34492458573277e-015
endloop
endfacet
facet normal 3.54282475771608e-017 -1.60372531538531e-016 -1.0
outer loop
vertex 51.9646806367296 101.435720473865 -6.34492458573277e-015
vertex 51.1997835328078 155.659003312306 -7.75490782700672e-015
vertex 51.9646806367296 145.209179917139 -6.34492458573277e-015
endloop
endfacet
facet normal 3.54282475771608e-017 -1.60372531538531e-016 -1.0
outer loop
vertex 51.9646806367296 69.2713537684001 0.0
vertex 51.9646806367296 101.435720473865 -6.34492458573277e-015
vertex 55.9646806367296 101.435720473865 -6.34492458573277e-015
endloop
endfacet
facet normal 3.54282475771608e-017 -1.60372531538531e-016 -1.0
outer loop
vertex 51.9646806367296 69.2713537684001 0.0
vertex 55.9646806367296 101.435720473865 -6.34492458573277e-015
vertex 51.9646806367296 56.4045677325972 1.97397653778353e-014
endloop
endfacet
facet normal 3.54282475771608e-017 -1.60372531538531e-016 -1.0
outer loop
vertex 51.9646806367296 56.4045677325972 1.97397653778353e-014
vertex 55.9646806367296 101.435720473865 -6.34492458573277e-015
vertex 55.9646806367296 56.4045677325972 1.97397653778353e-014
endloop
endfacet
facet normal 3.54282475771608e-017 -1.60372531538531e-016 -1.0
outer loop
vertex 55.9646806367296 56.4045677325972 1.97397653778353e-014
vertex 55.9646806367296 101.435720473865 -6.34492458573277e-015
vertex 55.9646806367296 69.2713537684001 2.25597318603832e-014
endloop
endfacet
facet normal -0.0 -1.0 -0.0
outer loop
vertex 55.9646806367296 145.209179917139 8.0
vertex 51.9646806367296 145.209179917139 -6.34492458573277e-015
vertex 55.9646806367296 145.209179917139 -6.34492458573277e-015
endloop
endfacet
facet normal -0.0 -1.0 -0.0
outer loop
vertex 51.9646806367296 145.209179917139 -6.34492458573277e-015
vertex 55.9646806367296 145.209179917139 8.0
vertex 51.9646806367296 145.209179917139 8.0
endloop
endfacet
facet normal 1.0 0.0 0.0
outer loop
vertex 51.9646806367296 145.209179917139 -6.34492458573277e-015
vertex 51.9646806367296 101.435720473865 8.0
vertex 51.9646806367296 101.435720473865 -6.34492458573277e-015
endloop
endfacet
facet normal 1.0 0.0 0.0
outer loop
vertex 51.9646806367296 101.435720473865 8.0
vertex 51.9646806367296 145.209179917139 -6.34492458573277e-015
vertex 51.9646806367296 145.209179917139 8.0
endloop
endfacet
facet normal -0.0 1.0 -0.0
outer loop
vertex 51.9646806367296 101.435720473865 8.0
vertex 55.9646806367296 101.435720473865 -6.34492458573277e-015
vertex 51.9646806367296 101.435720473865 -6.34492458573277e-015
endloop
endfacet
facet normal -0.0 1.0 -0.0
outer loop
vertex 55.9646806367296 101.435720473865 -6.34492458573277e-015
vertex 51.9646806367296 101.435720473865 8.0
vertex 55.9646806367296 101.435720473865 8.0
endloop
endfacet
facet normal -1.0 0.0 -0.0
outer loop
vertex 55.9646806367296 145.209179917139 8.0
vertex 55.9646806367296 101.435720473865 -6.34492458573277e-015
vertex 55.9646806367296 101.435720473865 8.0
endloop
endfacet
facet normal -1.0 0.0 -0.0
outer loop
vertex 55.9646806367296 101.435720473865 -6.34492458573277e-015
vertex 55.9646806367296 145.209179917139 8.0
vertex 55.9646806367296 145.209179917139 -6.34492458573277e-015
endloop
endfacet
facet normal -0.0 -0.0 1.0
outer loop
vertex 51.9646806367296 69.2713537684001 46.1
vertex 43.6292742954366 72.040717550997 46.1
vertex 43.2646806367297 69.2713537684001 46.1
endloop
endfacet
facet normal -0.0 -0.0 1.0
outer loop
vertex 43.6292742954366 72.040717550997 46.1
vertex 51.9646806367296 69.2713537684001 46.1
vertex 44.6982088162362 74.6213537684001 46.1
endloop
endfacet
facet normal -0.0 -0.0 1.0
outer loop
vertex 44.6982088162362 74.6213537684001 46.1
vertex 51.9646806367296 69.2713537684001 46.1
vertex 46.3986380780336 76.8373963270961 46.1
endloop
endfacet
facet normal -0.0 -0.0 1.0
outer loop
vertex 46.3986380780336 76.8373963270961 46.1
vertex 51.9646806367296 69.2713537684001 46.1
vertex 48.6146806367296 78.5378255888936 46.1
endloop
endfacet
facet normal -0.0 -0.0 1.0
outer loop
vertex 48.6146806367296 78.5378255888936 46.1
vertex 51.9646806367296 69.2713537684001 46.1
vertex 51.1953168541327 79.6067601096931 46.1
endloop
endfacet
facet normal -0.0 -0.0 1.0
outer loop
vertex 51.1953168541327 79.6067601096931 46.1
vertex 51.9646806367296 69.2713537684001 46.1
vertex 53.9646806367296 79.9713537684001 46.1
endloop
endfacet
facet normal -0.0 -0.0 1.0
outer loop
vertex 53.9646806367296 79.9713537684001 46.1
vertex 51.9646806367296 69.2713537684001 46.1
vertex 55.9646806367296 69.2713537684001 46.1
endloop
endfacet
facet normal -0.0 -0.0 1.0
outer loop
vertex 53.9646806367296 79.9713537684001 46.1
vertex 55.9646806367296 69.2713537684001 46.1
vertex 56.7340444193266 79.6067601096931 46.1
endloop
endfacet
facet normal -0.0 -0.0 1.0
outer loop
vertex 56.7340444193266 79.6067601096931 46.1
vertex 55.9646806367296 69.2713537684001 46.1
vertex 64.6646806367296 69.2713537684001 46.1
endloop
endfacet
facet normal -0.0 -0.0 1.0
outer loop
vertex 56.7340444193266 79.6067601096931 46.1
vertex 64.6646806367296 69.2713537684001 46.1
vertex 59.3146806367296 78.5378255888936 46.1
endloop
endfacet
facet normal -0.0 -0.0 1.0
outer loop
vertex 59.3146806367296 78.5378255888936 46.1
vertex 64.6646806367296 69.2713537684001 46.1
vertex 61.5307231954257 76.8373963270961 46.1
endloop
endfacet
facet normal -0.0 -0.0 1.0
outer loop
vertex 61.5307231954257 76.8373963270961 46.1
vertex 64.6646806367296 69.2713537684001 46.1
vertex 63.2311524572231 74.6213537684001 46.1
endloop
endfacet
facet normal -0.0 -0.0 1.0
outer loop
vertex 63.2311524572231 74.6213537684001 46.1
vertex 64.6646806367296 69.2713537684001 46.1
vertex 64.3000869780227 72.040717550997 46.1
endloop
endfacet
facet normal 0.0 -1.0 0.0
outer loop
vertex 64.6646806367296 69.2713537684001 46.1
vertex 55.9646806367296 69.2713537684001 2.25597318603832e-014
vertex 64.6646806367296 69.2713537684001 -7.75490782700672e-015
endloop
endfacet
facet normal 0.0 -1.0 0.0
outer loop
vertex 55.9646806367296 69.2713537684001 2.25597318603832e-014
vertex 64.6646806367296 69.2713537684001 46.1
vertex 55.9646806367296 69.2713537684001 46.1
endloop
endfacet
facet normal 1.0 -0.0 -0.0
outer loop
vertex 55.9646806367296 69.2713537684001 46.1
vertex 55.9646806367296 56.4045677325972 1.97397653778353e-014
vertex 55.9646806367296 69.2713537684001 2.25597318603832e-014
endloop
endfacet
facet normal -1.0 0.0 0.0
outer loop
vertex 51.9646806367296 69.2713537684001 0.0
vertex 51.9646806367296 56.4045677325972 1.97397653778353e-014
vertex 51.9646806367296 69.2713537684001 46.1
endloop
endfacet
facet normal 1.29653631381513e-014 -1.0 2.44682558138646e-015
outer loop
vertex 51.9646806367296 69.2713537684001 0.0
vertex 43.2646806367297 69.2713537684001 46.1
vertex 43.2646806367297 69.2713537683998 -7.75490782700672e-015
endloop
endfacet
facet normal 1.29653631381513e-014 -1.0 2.44682558138646e-015
outer loop
vertex 43.2646806367297 69.2713537684001 46.1
vertex 51.9646806367296 69.2713537684001 0.0
vertex 51.9646806367296 69.2713537684001 46.1
endloop
endfacet
facet normal 0.0 -0.963187268342662 0.268831333930033
outer loop
vertex 55.9646806367296 69.2713537684001 46.1
vertex 51.9646806367296 56.4045677325972 1.97397653778353e-014
vertex 55.9646806367296 56.4045677325972 1.97397653778353e-014
endloop
endfacet
facet normal 0.0 -0.963187268342662 0.268831333930033
outer loop
vertex 51.9646806367296 56.4045677325972 1.97397653778353e-014
vertex 55.9646806367296 69.2713537684001 46.1
vertex 51.9646806367296 69.2713537684001 46.1
endloop
endfacet
endsolid Bottle Sander Jig
